<?xml version="1.0" encoding="UTF-8" standalone="no"?>
<!-- Created with Inkscape (http://www.inkscape.org/) -->

<svg
   xmlns:dc="http://purl.org/dc/elements/1.1/"
   xmlns:cc="http://creativecommons.org/ns#"
   xmlns:rdf="http://www.w3.org/1999/02/22-rdf-syntax-ns#"
   xmlns:svg="http://www.w3.org/2000/svg"
   xmlns="http://www.w3.org/2000/svg"
   xmlns:xlink="http://www.w3.org/1999/xlink"
   xmlns:sodipodi="http://sodipodi.sourceforge.net/DTD/sodipodi-0.dtd"
   xmlns:inkscape="http://www.inkscape.org/namespaces/inkscape"
   width="100"
   height="100"
   id="svg3042"
   version="1.1"
   inkscape:version="0.48.2 r9819"
   sodipodi:docname="template.svg"
   inkscape:export-filename="/home/heather/projects/libre-jig/img-src/temp.png"
   inkscape:export-xdpi="90"
   inkscape:export-ydpi="90">
  <defs
     id="defs3044">
    <linearGradient
       id="linearGradient5267">
      <stop
         id="stop5269"
         offset="0"
         style="stop-color:#ffffff;stop-opacity:0.6" />
      <stop
         id="stop5271"
         offset="1"
         style="stop-color:#ffffff;stop-opacity:0;" />
    </linearGradient>
    <linearGradient
       id="linearGradient4878">
      <stop
         id="stop4880"
         offset="0"
         style="stop-color:#63008c;stop-opacity:0.82352942;" />
      <stop
         style="stop-color:#63008c;stop-opacity:1;"
         offset="1"
         id="stop4884" />
    </linearGradient>
    <linearGradient
       id="linearGradient4332">
      <stop
         style="stop-color:#ffffff;stop-opacity:1;"
         offset="0"
         id="stop4334" />
      <stop
         style="stop-color:#ffffff;stop-opacity:0;"
         offset="1"
         id="stop4336" />
    </linearGradient>
    <linearGradient
       id="linearGradient3840">
      <stop
         id="stop3842"
         offset="0"
         style="stop-color:#000000;stop-opacity:1;" />
      <stop
         id="stop3844"
         offset="1"
         style="stop-color:#000000;stop-opacity:0.58823532;" />
    </linearGradient>
    <linearGradient
       id="linearGradient3832">
      <stop
         style="stop-color:#7f7f7f;stop-opacity:1;"
         offset="0"
         id="stop3834" />
      <stop
         style="stop-color:#7f7f7f;stop-opacity:0;"
         offset="1"
         id="stop3836" />
    </linearGradient>
    <linearGradient
       inkscape:collect="always"
       xlink:href="#linearGradient3835"
       id="linearGradient3873"
       gradientUnits="userSpaceOnUse"
       gradientTransform="matrix(0.26886665,0,0,0.26848797,4.906859,4.7675737)"
       spreadMethod="pad"
       x1="319.03125"
       y1="139.76784"
       x2="202.9015"
       y2="320.0004" />
    <linearGradient
       id="linearGradient3835">
      <stop
         id="stop3837"
         style="stop-color:#cccccc;stop-opacity:1"
         offset="0" />
      <stop
         id="stop3839"
         style="stop-color:#3c3c3c;stop-opacity:1"
         offset="1" />
    </linearGradient>
    <linearGradient
       y2="320.0004"
       x2="202.9015"
       y1="139.76784"
       x1="319.03125"
       spreadMethod="pad"
       gradientTransform="matrix(0.26433197,0,0,0.26395968,7.66608,7.5145966)"
       gradientUnits="userSpaceOnUse"
       id="linearGradient3087"
       xlink:href="#linearGradient3835"
       inkscape:collect="always" />
    <linearGradient
       x1="48"
       y1="20.220806"
       x2="48"
       y2="138.66119"
       id="linearGradient2885"
       xlink:href="#linearGradient3737-0"
       gradientUnits="userSpaceOnUse" />
    <linearGradient
       id="linearGradient3737-0">
      <stop
         id="stop3739-3"
         style="stop-color:#fdff98;stop-opacity:1"
         offset="0" />
      <stop
         id="stop3741-0"
         style="stop-color:#ffffff;stop-opacity:0"
         offset="1" />
    </linearGradient>
    <clipPath
       id="clipPath2880">
      <path
         inkscape:connector-curvature="0"
         d="M 12,6 C 8.8423036,6 6.2807978,8.4087223 6.03125,11.5 8.5006537,11.517094 10.5,13.526594 10.5,16 c 0,2.484001 -2.016,4.5 -4.5,4.5 l 0,7 c 2.484,0 4.5,2.016 4.5,4.5 0,2.484001 -2.016,4.5 -4.5,4.5 l 0,7 c 2.484,0 4.5,2.016 4.5,4.5 0,2.484001 -2.016,4.5 -4.5,4.5 l 0,7 c 2.484,0 4.5,2.016 4.5,4.5 0,2.484001 -2.016,4.5 -4.5,4.5 l 0,7 c 2.484,-4e-6 4.5,2.016 4.5,4.5 0,2.473403 -1.9993463,4.482906 -4.46875,4.5 C 6.2807978,87.591278 8.8423036,90 12,90 c 0,-2.484 2.016,-4.5 4.5,-4.5 2.484001,0 4.5,2.016 4.5,4.5 l 7,0 c 0,-2.484 2.016,-4.5 4.5,-4.5 2.484001,0 4.5,2.016 4.5,4.5 l 7,0 c 0,-2.484 2.016,-4.5 4.5,-4.5 2.484001,0 4.5,2.016 4.5,4.5 l 7,0 c 0,-2.484 2.016,-4.5 4.5,-4.5 2.484001,0 4.5,2.016 4.5,4.5 l 7,0 c -4e-6,-2.484 2.016,-4.5 4.5,-4.5 2.452216,0 4.449324,1.966103 4.5,4.40625 C 87.688537,89.461133 89.746004,87.259273 89.96875,84.5 87.499346,84.482903 85.5,82.473406 85.5,80 c 0,-2.484004 2.016,-4.5 4.5,-4.5 l 0,-7 c -2.484,10e-7 -4.5,-2.016 -4.5,-4.5 0,-2.484 2.016,-4.5 4.5,-4.5 l 0,-7 c -2.484,10e-7 -4.5,-2.016 -4.5,-4.5 0,-2.484 2.016,-4.5 4.5,-4.5 l 0,-7 c -2.484,10e-7 -4.5,-2.016 -4.5,-4.5 0,-2.484 2.016,-4.5 4.5,-4.5 l 0,-7 c -2.484,1e-6 -4.5,-2.016 -4.5,-4.5 0,-2.473406 1.999346,-4.482906 4.46875,-4.5 C 89.746004,8.7407268 87.688537,6.538867 85,6.09375 84.949321,8.5338976 82.952219,10.5 80.5,10.5 78.015996,10.5 76,8.4840001 76,6 l -7,0 c 10e-7,2.4840004 -2.016,4.5 -4.5,4.5 C 62.016,10.5 60,8.4840001 60,6 l -7,0 c 10e-7,2.4840004 -2.016,4.5 -4.5,4.5 C 46.016,10.5 44,8.4840001 44,6 l -7,0 c 10e-7,2.4840004 -2.016,4.5 -4.5,4.5 C 30.016,10.5 28,8.4840001 28,6 l -7,0 c 1e-6,2.4840004 -2.016,4.5 -4.5,4.5 C 14.016,10.5 12,8.4840001 12,6 z"
         id="path2882"
         style="fill:#ffffff;fill-opacity:1;fill-rule:nonzero;stroke:none" />
    </clipPath>
    <filter
       x="-0.192"
       y="-0.192"
       width="1.3839999"
       height="1.3839999"
       color-interpolation-filters="sRGB"
       id="filter3794">
      <feGaussianBlur
         id="feGaussianBlur3796"
         stdDeviation="5.28" />
    </filter>
    <linearGradient
       y2="138.66119"
       x2="48"
       y1="20.220806"
       x1="48"
       gradientUnits="userSpaceOnUse"
       id="linearGradient3846"
       xlink:href="#linearGradient3737-0"
       inkscape:collect="always" />
    <linearGradient
       inkscape:collect="always"
       xlink:href="#linearGradient3737-0"
       id="linearGradient3814"
       gradientUnits="userSpaceOnUse"
       x1="48"
       y1="20.220806"
       x2="48"
       y2="138.66119" />
    <filter
       id="filter4275"
       inkscape:label="Clean edges"
       inkscape:menu="ABCs"
       inkscape:menu-tooltip="Removes or decreases glows and jaggeries around objects edges after applying some filters"
       height="1"
       width="1"
       y="0"
       x="0"
       color-interpolation-filters="sRGB">
      <feGaussianBlur
         id="feGaussianBlur4277"
         result="result6"
         stdDeviation="0.4" />
      <feComposite
         in2="result6"
         id="feComposite4279"
         operator="in"
         in="SourceGraphic"
         result="result7" />
      <feComposite
         in2="result7"
         id="feComposite4281"
         operator="in"
         result="result8"
         in="result7" />
    </filter>
    <linearGradient
       inkscape:collect="always"
       xlink:href="#linearGradient4332"
       id="linearGradient4338"
       x1="100"
       y1="100"
       x2="106.89781"
       y2="137.01825"
       gradientUnits="userSpaceOnUse"
       gradientTransform="translate(-55.1875,-92)" />
    <linearGradient
       inkscape:collect="always"
       xlink:href="#linearGradient4332"
       id="linearGradient4540"
       x1="62.032845"
       y1="83.875946"
       x2="55.211681"
       y2="66.324814"
       gradientUnits="userSpaceOnUse" />
    <linearGradient
       inkscape:collect="always"
       xlink:href="#linearGradient4332-7"
       id="linearGradient4540-6"
       x1="45.171532"
       y1="8.0000267"
       x2="46.014599"
       y2="73.605835"
       gradientUnits="userSpaceOnUse"
       gradientTransform="translate(150,0)" />
    <linearGradient
       id="linearGradient4332-7">
      <stop
         style="stop-color:#ffffff;stop-opacity:1;"
         offset="0"
         id="stop4334-7" />
      <stop
         style="stop-color:#ffffff;stop-opacity:0;"
         offset="1"
         id="stop4336-2" />
    </linearGradient>
    <filter
       inkscape:collect="always"
       id="filter4700">
      <feGaussianBlur
         inkscape:collect="always"
         stdDeviation="0.88"
         id="feGaussianBlur4702" />
    </filter>
    <filter
       inkscape:collect="always"
       id="filter4784">
      <feGaussianBlur
         inkscape:collect="always"
         stdDeviation="1.3049991"
         id="feGaussianBlur4786" />
    </filter>
    <linearGradient
       x1="48"
       y1="20.220806"
       x2="48"
       y2="138.66119"
       id="linearGradient2885-2"
       xlink:href="#linearGradient3737-0-3"
       gradientUnits="userSpaceOnUse" />
    <linearGradient
       id="linearGradient3737-0-3">
      <stop
         id="stop3739-3-7"
         style="stop-color:#fdff98;stop-opacity:1"
         offset="0" />
      <stop
         id="stop3741-0-1"
         style="stop-color:#ffffff;stop-opacity:0"
         offset="1" />
    </linearGradient>
    <clipPath
       id="clipPath2880-5">
      <path
         inkscape:connector-curvature="0"
         d="M 12,6 C 8.8423036,6 6.2807978,8.4087223 6.03125,11.5 8.5006537,11.517094 10.5,13.526594 10.5,16 c 0,2.484001 -2.016,4.5 -4.5,4.5 l 0,7 c 2.484,0 4.5,2.016 4.5,4.5 0,2.484001 -2.016,4.5 -4.5,4.5 l 0,7 c 2.484,0 4.5,2.016 4.5,4.5 0,2.484001 -2.016,4.5 -4.5,4.5 l 0,7 c 2.484,0 4.5,2.016 4.5,4.5 0,2.484001 -2.016,4.5 -4.5,4.5 l 0,7 c 2.484,-4e-6 4.5,2.016 4.5,4.5 0,2.473403 -1.9993463,4.482906 -4.46875,4.5 C 6.2807978,87.591278 8.8423036,90 12,90 c 0,-2.484 2.016,-4.5 4.5,-4.5 2.484001,0 4.5,2.016 4.5,4.5 l 7,0 c 0,-2.484 2.016,-4.5 4.5,-4.5 2.484001,0 4.5,2.016 4.5,4.5 l 7,0 c 0,-2.484 2.016,-4.5 4.5,-4.5 2.484001,0 4.5,2.016 4.5,4.5 l 7,0 c 0,-2.484 2.016,-4.5 4.5,-4.5 2.484001,0 4.5,2.016 4.5,4.5 l 7,0 c -4e-6,-2.484 2.016,-4.5 4.5,-4.5 2.452216,0 4.449324,1.966103 4.5,4.40625 C 87.688537,89.461133 89.746004,87.259273 89.96875,84.5 87.499346,84.482903 85.5,82.473406 85.5,80 c 0,-2.484004 2.016,-4.5 4.5,-4.5 l 0,-7 c -2.484,10e-7 -4.5,-2.016 -4.5,-4.5 0,-2.484 2.016,-4.5 4.5,-4.5 l 0,-7 c -2.484,10e-7 -4.5,-2.016 -4.5,-4.5 0,-2.484 2.016,-4.5 4.5,-4.5 l 0,-7 c -2.484,10e-7 -4.5,-2.016 -4.5,-4.5 0,-2.484 2.016,-4.5 4.5,-4.5 l 0,-7 c -2.484,1e-6 -4.5,-2.016 -4.5,-4.5 0,-2.473406 1.999346,-4.482906 4.46875,-4.5 C 89.746004,8.7407268 87.688537,6.538867 85,6.09375 84.949321,8.5338976 82.952219,10.5 80.5,10.5 78.015996,10.5 76,8.4840001 76,6 l -7,0 c 10e-7,2.4840004 -2.016,4.5 -4.5,4.5 C 62.016,10.5 60,8.4840001 60,6 l -7,0 c 10e-7,2.4840004 -2.016,4.5 -4.5,4.5 C 46.016,10.5 44,8.4840001 44,6 l -7,0 c 10e-7,2.4840004 -2.016,4.5 -4.5,4.5 C 30.016,10.5 28,8.4840001 28,6 l -7,0 c 1e-6,2.4840004 -2.016,4.5 -4.5,4.5 C 14.016,10.5 12,8.4840001 12,6 z"
         id="path2882-9"
         style="fill:#ffffff;fill-opacity:1;fill-rule:nonzero;stroke:none" />
    </clipPath>
    <filter
       x="-0.192"
       y="-0.192"
       width="1.3839999"
       height="1.3839999"
       color-interpolation-filters="sRGB"
       id="filter3794-1">
      <feGaussianBlur
         id="feGaussianBlur3796-3"
         stdDeviation="5.28" />
    </filter>
    <linearGradient
       y2="138.66119"
       x2="48"
       y1="20.220806"
       x1="48"
       gradientUnits="userSpaceOnUse"
       id="linearGradient3926"
       xlink:href="#linearGradient3737-0-3"
       inkscape:collect="always" />
    <filter
       inkscape:collect="always"
       id="filter5069"
       x="-0.24889066"
       width="1.4977813"
       y="-0.2317226"
       height="1.4634452">
      <feGaussianBlur
         inkscape:collect="always"
         stdDeviation="6.8840899"
         id="feGaussianBlur5071" />
    </filter>
    <linearGradient
       inkscape:collect="always"
       xlink:href="#linearGradient3737-0"
       id="linearGradient5124"
       gradientUnits="userSpaceOnUse"
       x1="48"
       y1="20.220806"
       x2="48"
       y2="138.66119" />
    <linearGradient
       inkscape:collect="always"
       xlink:href="#linearGradient3737-0"
       id="linearGradient5132"
       x1="50.10479"
       y1="26.624088"
       x2="65.990105"
       y2="122.04379"
       gradientUnits="userSpaceOnUse" />
    <filter
       inkscape:collect="always"
       id="filter5138">
      <feGaussianBlur
         inkscape:collect="always"
         stdDeviation="0.83996286"
         id="feGaussianBlur5140" />
    </filter>
    <linearGradient
       y2="320.0004"
       x2="202.9015"
       y1="139.76784"
       x1="319.03125"
       spreadMethod="pad"
       gradientTransform="matrix(0.26433197,0,0,0.26395968,7.66608,7.5145966)"
       gradientUnits="userSpaceOnUse"
       id="linearGradient3087-0"
       xlink:href="#linearGradient3835-9"
       inkscape:collect="always" />
    <linearGradient
       id="linearGradient3835-9">
      <stop
         id="stop3837-0"
         style="stop-color:#cccccc;stop-opacity:1"
         offset="0" />
      <stop
         id="stop3839-2"
         style="stop-color:#3c3c3c;stop-opacity:1"
         offset="1" />
    </linearGradient>
    <linearGradient
       y2="320.0004"
       x2="202.9015"
       y1="139.76784"
       x1="319.03125"
       spreadMethod="pad"
       gradientTransform="matrix(0.26433197,0,0,0.26395968,157.66265,7.529193)"
       gradientUnits="userSpaceOnUse"
       id="linearGradient5160"
       xlink:href="#linearGradient3835-9"
       inkscape:collect="always" />
    <linearGradient
       y2="320.0004"
       x2="202.9015"
       y1="139.76784"
       x1="319.03125"
       spreadMethod="pad"
       gradientTransform="matrix(0.26433197,0,0,0.26395968,157.66265,7.529193)"
       gradientUnits="userSpaceOnUse"
       id="linearGradient5160-2"
       xlink:href="#linearGradient3835-9-5"
       inkscape:collect="always" />
    <linearGradient
       id="linearGradient3835-9-5">
      <stop
         id="stop3837-0-1"
         style="stop-color:#cccccc;stop-opacity:1"
         offset="0" />
      <stop
         id="stop3839-2-3"
         style="stop-color:#3c3c3c;stop-opacity:1"
         offset="1" />
    </linearGradient>
    <linearGradient
       y2="320.0004"
       x2="202.9015"
       y1="139.76784"
       x1="319.03125"
       spreadMethod="pad"
       gradientTransform="matrix(0.26433197,0,0,0.26395968,157.66265,7.52925)"
       gradientUnits="userSpaceOnUse"
       id="linearGradient5204"
       xlink:href="#linearGradient3835-9-5"
       inkscape:collect="always" />
    <linearGradient
       inkscape:collect="always"
       xlink:href="#linearGradient3835-9-5"
       id="linearGradient5226"
       gradientUnits="userSpaceOnUse"
       gradientTransform="matrix(0.25174473,0,0,0.25139017,159.67871,9.5516667)"
       spreadMethod="pad"
       x1="319.03125"
       y1="139.76784"
       x2="202.9015"
       y2="320.0004" />
    <linearGradient
       inkscape:collect="always"
       xlink:href="#linearGradient3835-9"
       id="linearGradient5228"
       gradientUnits="userSpaceOnUse"
       gradientTransform="matrix(0.26433197,0,0,0.26395968,157.66265,7.529193)"
       spreadMethod="pad"
       x1="319.03125"
       y1="139.76784"
       x2="202.9015"
       y2="320.0004" />
    <linearGradient
       inkscape:collect="always"
       xlink:href="#linearGradient4332"
       id="linearGradient5231"
       gradientUnits="userSpaceOnUse"
       gradientTransform="matrix(0.26433197,0,0,0.26395968,7.66265,7.529193)"
       spreadMethod="pad"
       x1="252.76831"
       y1="320.01404"
       x2="240.32057"
       y2="241.15338" />
    <linearGradient
       inkscape:collect="always"
       xlink:href="#linearGradient3835-9-7"
       id="linearGradient5231-6"
       gradientUnits="userSpaceOnUse"
       gradientTransform="matrix(0.26433197,0,0,0.26395968,7.66265,7.529193)"
       spreadMethod="pad"
       x1="319.03125"
       y1="139.76784"
       x2="202.9015"
       y2="320.0004" />
    <linearGradient
       id="linearGradient3835-9-7">
      <stop
         id="stop3837-0-14"
         style="stop-color:#cccccc;stop-opacity:1"
         offset="0" />
      <stop
         id="stop3839-2-1"
         style="stop-color:#3c3c3c;stop-opacity:1"
         offset="1" />
    </linearGradient>
    <linearGradient
       y2="152.15773"
       x2="104.67643"
       y1="1.7837346"
       x1="78.145958"
       spreadMethod="pad"
       gradientTransform="matrix(0.26433197,0,0,0.26395968,7.66265,7.529193)"
       gradientUnits="userSpaceOnUse"
       id="linearGradient5248"
       xlink:href="#linearGradient5267"
       inkscape:collect="always" />
  </defs>
  <sodipodi:namedview
     id="base"
     pagecolor="#ffffff"
     bordercolor="#666666"
     borderopacity="1.0"
     inkscape:pageopacity="0.0"
     inkscape:pageshadow="2"
     inkscape:zoom="4.8528682"
     inkscape:cx="123.10155"
     inkscape:cy="50"
     inkscape:document-units="px"
     showgrid="false"
     inkscape:window-width="1680"
     inkscape:window-height="1021"
     inkscape:window-x="0"
     inkscape:window-y="0"
     inkscape:window-maximized="1"
     inkscape:current-layer="svg3042"
     showguides="true"
     inkscape:guide-bbox="true">
    <sodipodi:guide
       orientation="1,0"
       position="0,-39"
       id="guide3802" />
    <sodipodi:guide
       orientation="1,0"
       position="100,-98"
       id="guide3804" />
    <sodipodi:guide
       orientation="0,1"
       position="307.5,100"
       id="guide3806" />
    <sodipodi:guide
       orientation="0,1"
       position="309,0"
       id="guide3808" />
    <sodipodi:guide
       orientation="1,0"
       position="250,-117"
       id="guide3810" />
    <sodipodi:guide
       orientation="1,0"
       position="150,-133.5"
       id="guide3812" />
    <sodipodi:guide
       position="8.0000267,91.999973"
       orientation="83.999943,0"
       id="guide3822" />
    <sodipodi:guide
       position="91.999969,8.0000305"
       orientation="-83.999943,0"
       id="guide3826" />
    <sodipodi:guide
       position="91.999969,91.999973"
       orientation="0,-83.999943"
       id="guide3828" />
    <sodipodi:guide
       position="158,-34"
       orientation="84,0"
       id="guide3882" />
    <sodipodi:guide
       position="242,-29.75"
       orientation="-84,0"
       id="guide3886" />
    <sodipodi:guide
       position="231.90625,8.000003"
       orientation="0,-63.8125"
       id="guide4186" />
  </sodipodi:namedview>
  <metadata
     id="metadata3047">
    <rdf:RDF>
      <cc:Work
         rdf:about="">
        <dc:format>image/svg+xml</dc:format>
        <dc:type
           rdf:resource="http://purl.org/dc/dcmitype/StillImage" />
        <dc:title></dc:title>
      </cc:Work>
    </rdf:RDF>
  </metadata>
  <rect
     style="opacity:0.50000000000000000;fill:#000000;fill-opacity:1;stroke:none;filter:url(#filter4700)"
     id="rect3830"
     width="88"
     height="88"
     x="6"
     y="6"
     rx="8.9885721"
     ry="8.9885721" />
  <path
     inkscape:connector-curvature="0"
     style="fill:url(#linearGradient3087);fill-opacity:1;stroke:none"
     d="m 91.84633,44.18051 c 0.0515,0.03911 0.10226,0.08376 0.15362,0.122892 l 0,-0.122892 -0.15362,0 z m 0.15362,0.122892 -4.88495,5.714467 -2.88796,3.840367 -2.88795,3.809645 -3.13374,3.65603 c -0.58076,0.676059 -1.66303,2.185479 -2.76507,1.720485 -0.85714,-0.362766 -1.55147,-2.448656 -1.90482,-3.256632 -1.46238,-3.357211 -4.32798,-7.425153 -8.5717,-4.424103 -0.73469,0.517764 -1.46522,1.168361 -1.99699,1.874099 -0.4793,0.633188 -1.06099,1.699327 -1.22892,2.457835 -1.05656,4.785186 4.90022,6.257259 8.63315,7.035551 2.15859,0.48149 4.1733,0.600823 4.23976,3.225909 0.077,2.03148 -1.45025,4.921108 -2.45783,6.728325 -1.40291,2.522869 -4.73721,7.460522 -6.60543,9.647003 -1.41691,1.658822 -3.497,3.79303 -4.42411,5.653019 l 22.12052,0 c 4.85295,0 8.75604,-3.909923 8.75604,-8.756037 l 0,-38.925963 z m -30.87656,47.682 -0.0615,-0.06145 0,0.06145 0.0615,0 z"
     id="rect3682-6-0" />
  <path
     inkscape:connector-curvature="0"
     style="fill:#ff800f;fill-opacity:1;stroke:none"
     d="m 44.96313,7.988886 0,0.1228918 14.10183,10.7530292 c 1.71778,1.27627 7.57192,5.037348 9.52411,5.100008 2.3755,0.141807 2.36547,-1.637385 2.79579,-3.256632 0.71369,-3.24179 2.42721,-8.595951 7.06627,-6.759047 0.86414,0.342975 1.62474,0.907469 2.33495,1.474701 2.55042,2.034775 3.27619,3.826898 0.92168,6.35965 -1.38891,1.493927 -3.30997,2.380615 -5.19217,3.195186 -0.83965,0.362763 -2.36351,0.848807 -2.73434,1.689761 -0.82917,1.869882 1.95244,4.501902 3.2259,5.74519 4.43928,4.328253 9.85773,7.979806 14.83918,11.766886 l 0.15362,0 0,-27.5892 c 0,-4.768862 -3.9275,-8.602424 -8.78676,-8.602424 l -38.25006,0 z"
     id="rect3682-6" />
  <path
     inkscape:connector-curvature="0"
     style="fill:#00ff00;fill-opacity:1;stroke:none"
     d="m 8.00343,46.331116 0,36.898249 c 0,4.849448 3.9131,8.756037 8.78676,8.756037 l 44.3332,0 -3.6253,-2.765063 -2.73434,-2.427112 -4.08616,-3.13374 -6.42109,-5.591575 c -1.96968,-1.737965 -6.5039,-5.9131 -7.31206,-8.264471 -0.65772,-2.064454 1.08303,-2.50593 2.73434,-3.195186 2.49445,-1.160843 6.24632,-3.082794 5.00784,-6.298201 -0.22391,-0.577122 -0.62399,-1.09753 -1.0753,-1.536147 -0.39534,-0.392446 -1.44925,-1.204278 -1.93555,-1.474701 -0.7242,-0.389147 -1.43735,-0.579394 -2.2735,-0.553014 -2.97025,0.09564 -3.76746,3.03295 -4.23976,5.315069 -0.30087,1.279567 -0.26731,3.334552 -2.33494,2.734342 -0.86764,-0.240743 -1.83752,-1.061256 -2.64218,-1.536147 l -6.17531,-4.424103 -3.93254,-3.379524 -11.95122,-9.124713 -0.12289,0 z m 53.11996,45.654286 0.18434,0 0,-0.337951 c -0.0628,0.11196 -0.12938,0.227704 -0.18434,0.337951 z"
     id="rect3682-6-0-5" />
  <path
     inkscape:connector-curvature="0"
     style="fill:#00ddff;fill-opacity:1;stroke:none"
     d="m 16.6673,7.988886 c -4.80269,0 -8.66387,3.832146 -8.66387,8.602424 l 0,29.647637 2.73434,-3.164463 3.37952,-3.471692 c 1.70029,-1.978713 3.55696,-3.850307 5.53013,-5.591576 1.17201,-1.035525 3.70148,-3.225908 5.3458,-3.225908 1.63731,0 2.31069,1.859895 2.88795,3.010848 1.57434,3.142853 4.72573,7.797282 8.75604,4.116874 0.51778,-0.438613 1.40135,-1.501099 1.75121,-2.058437 2.46646,-4.283911 -2.44728,-5.889797 -5.83736,-6.605432 -1.30145,-0.273721 -3.45134,-0.440061 -3.16446,-2.181329 0.16792,-1.022335 1.99965,-3.413047 2.73434,-4.270489 l 12.68857,-14.808457 -28.14221,0 z m 28.14221,0 0.15362,0.1228918 0,-0.1228918 -0.15362,0 z m -36.80608,38.250061 0,0.09217 0.12289,0 -0.12289,-0.09217 z"
     id="rect3682" />
  <path
     style="fill:url(#linearGradient5248);fill-opacity:1;stroke:none"
     d="M 16.65625,8 C 11.85356,8 8,11.823472 8,16.59375 L 8,46.25 8,46.34375 8,70.75 8,83.25 C 8,88.09945 11.90759,92 16.78125,92 l 44.28125,0 0.0625,0 0.1875,0 9.4375,0 12.5,0 C 88.10295,92 92,88.09612 92,83.25 l 0,-12.5 0,-26.4375 0,-0.125 L 92,29.25 92,16.59375 C 92,11.824888 88.07801,8 83.21875,8 L 70.75,8 44.8125,8 16.65625,8 z M 18.25,10 45.0625,10 69.75,10 81.625,10 C 86.25287,10 90,13.645728 90,18.1875 l 0,12.0625 0,14.21875 0,0.125 0,25.15625 0,11.90625 C 90,86.271602 86.27813,90 81.65625,90 L 69.75,90 l -8.96875,0 -0.1875,0 -0.0625,0 L 18.375,90 C 13.73341,90 10,86.274771 10,81.65625 L 10,69.75 10,46.53125 10,46.4375 10,18.1875 C 10,13.644386 13.67601,10 18.25,10 z"
     id="rect3682-6-0-9-5"
     inkscape:connector-curvature="0" />
  <path
     style="fill:url(#linearGradient5231);fill-opacity:1;stroke:none;opacity:0.59999999999999998"
     d="M 16.65625,8 C 11.85356,8 8,11.823472 8,16.59375 L 8,46.25 8,46.34375 8,70.75 8,83.25 C 8,88.09945 11.90759,92 16.78125,92 l 44.28125,0 0.0625,0 0.1875,0 9.4375,0 12.5,0 C 88.10295,92 92,88.09612 92,83.25 l 0,-12.5 0,-26.4375 0,-0.125 L 92,29.25 92,16.59375 C 92,11.824888 88.07801,8 83.21875,8 L 70.75,8 44.8125,8 16.65625,8 z M 18.25,10 45.0625,10 69.75,10 81.625,10 C 86.25287,10 90,13.645728 90,18.1875 l 0,12.0625 0,14.21875 0,0.125 0,25.15625 0,11.90625 C 90,86.271602 86.27813,90 81.65625,90 L 69.75,90 l -8.96875,0 -0.1875,0 -0.0625,0 L 18.375,90 C 13.73341,90 10,86.274771 10,81.65625 L 10,69.75 10,46.53125 10,46.4375 10,18.1875 C 10,13.644386 13.67601,10 18.25,10 z"
     id="rect3682-6-0-9"
     inkscape:connector-curvature="0" />
  <path
     style="fill:#000000;fill-opacity:1;stroke:none;filter:url(#filter4784)"
     d="m 43.34375,8 -11.875,13.84375 c -0.76096,0.888104 -2.66982,3.347357 -2.84375,4.40625 -0.29714,1.803534 1.96451,1.997743 3.3125,2.28125 3.51131,0.741225 8.58591,2.40665 6.03125,6.84375 -0.36237,0.577268 -1.27619,1.670703 -1.8125,2.125 -4.17443,3.812016 -7.43186,-1.02601 -9.0625,-4.28125 C 26.49585,32.026642 25.82086,30.125 24.125,30.125 c -1.70311,0 -4.34858,2.271192 -5.5625,3.34375 -2.04373,1.803533 -3.98892,3.731782 -5.75,5.78125 L 9.34375,42.84375 8,44.40625 l 0,2.875 11.03125,8.40625 4.03125,3.46875 6.40625,4.59375 c 0.83344,0.491874 1.85133,1.313148 2.75,1.5625 2.14156,0.621673 2.09462,-1.48718 2.40625,-2.8125 0.4892,-2.363728 1.32977,-5.36969 4.40625,-5.46875 0.86605,-0.02732 1.62492,0.159438 2.375,0.5625 0.50369,0.280094 1.59053,1.09352 2,1.5 0.46744,0.454304 0.86182,0.995991 1.09375,1.59375 1.28275,3.330388 -2.60385,5.328905 -5.1875,6.53125 -1.71036,0.71391 -3.52499,1.17422 -2.84375,3.3125 0.83707,2.43545 5.55363,6.76237 7.59375,8.5625 l 6.625,5.78125 4.25,3.25 2.8125,2.5 1.78125,1.375 2.9375,0 c 1.08231,-1.501256 2.56387,-3.064864 3.65625,-4.34375 1.93502,-2.26466 5.39068,-7.38693 6.84375,-10 C 74.01236,75.78439 75.5798,72.79163 75.5,70.6875 75.4312,67.96855 73.36078,67.84246 71.125,67.34375 67.25858,66.537628 61.06191,65.018803 62.15625,60.0625 c 0.17392,-0.785629 0.7848,-1.906671 1.28125,-2.5625 0.55078,-0.730975 1.30154,-1.40122 2.0625,-1.9375 4.39547,-3.108364 7.36033,1.116486 8.875,4.59375 0.36599,0.836868 1.08096,2.999263 1.96875,3.375 1.14144,0.481624 2.27349,-1.081014 2.875,-1.78125 l 3.25,-3.78125 L 85.4375,54 l 3,-3.96875 L 92,45.875 92,43 C 87.22007,39.425 82.176,35.914538 77.96875,31.8125 76.64975,30.524751 73.7662,27.780499 74.625,25.84375 c 0.3841,-0.871025 1.97408,-1.374264 2.84375,-1.75 1.94952,-0.843699 3.93641,-1.7339 5.375,-3.28125 2.43871,-2.623323 1.67288,-4.486211 -0.96875,-6.59375 -0.73559,-0.587514 -1.51121,-1.176008 -2.40625,-1.53125 -4.80495,-1.902591 -6.57328,3.611035 -7.3125,6.96875 -0.44571,1.67715 -0.44581,3.521879 -2.90625,3.375 C 67.22801,22.96635 61.18547,19.071908 59.40625,17.75 L 46.59375,8 l -3.25,0 z"
     id="Selection-7-5"
     inkscape:connector-curvature="0" />
  <path
     inkscape:connector-curvature="0"
     d="m 59.073435,18.871555 c 1.71779,1.27627 7.56733,5.042418 9.51951,5.105078 2.3755,0.141809 2.36151,-1.639034 2.79183,-3.258279 0.7137,-3.241791 2.43847,-8.584314 7.07753,-6.74741 0.86414,0.342977 1.61632,0.916804 2.32652,1.484035 2.55043,2.034776 3.28512,3.822212 0.93061,6.354964 -1.38892,1.493928 -3.3306,2.371157 -5.21281,3.185728 -0.83965,0.362763 -2.35102,0.847548 -2.72186,1.6885 -0.82915,1.869884 1.95918,4.508167 3.23264,5.751457 4.48512,4.372956 9.95682,8.06985 14.98071,11.898657 0,0 -4.88745,5.695398 -4.88745,5.695398 0,0 -2.88278,3.832104 -2.88278,3.832104 0,0 -2.88629,3.828811 -2.88629,3.828811 0,0 -3.12769,3.647426 -3.12769,3.647426 -0.58075,0.67606 -1.6688,2.193072 -2.77083,1.728076 -0.85714,-0.362765 -1.56385,-2.443711 -1.9172,-3.251687 -1.46238,-3.357212 -4.32418,-7.436662 -8.5679,-4.435614 -0.73469,0.517764 -1.45889,1.170741 -1.99066,1.876479 -0.47931,0.633187 -1.05657,1.698396 -1.22449,2.456902 -1.05656,4.785187 4.90844,6.249434 8.64137,7.027725 2.15859,0.48149 4.15626,0.593617 4.22272,3.218702 0.077,2.03148 -1.43789,4.926994 -2.44547,6.734224 -1.40291,2.52286 -4.737,7.47623 -6.60522,9.66271 -1.41691,1.65883 -3.51253,3.78264 -4.43964,5.64263 0,0 -3.62448,-2.7636 -3.62448,-2.7636 0,0 -2.71486,-2.42723 -2.71486,-2.42723 0,0 -4.11077,-3.13295 -4.11077,-3.13295 0,0 -6.39531,-5.59316 -6.39531,-5.59316 -1.96968,-1.73798 -6.53176,-5.91306 -7.33993,-8.264421 -0.65772,-2.064464 1.08455,-2.499776 2.73586,-3.189032 2.49445,-1.160839 6.26936,-3.093384 5.03089,-6.308791 -0.22392,-0.577122 -0.61925,-1.088289 -1.07056,-1.526907 -0.39533,-0.392447 -1.44839,-1.203716 -1.93469,-1.474139 -0.72419,-0.389147 -1.45538,-0.567231 -2.29153,-0.54085 -2.97026,0.09564 -3.76092,3.00764 -4.23323,5.289761 -0.30087,1.279564 -0.27288,3.33083 -2.34051,2.730621 -0.86764,-0.240743 -1.83673,-1.042122 -2.64139,-1.517015 0,0 -6.18191,-4.442211 -6.18191,-4.442211 0,0 -3.91485,-3.360513 -3.91485,-3.360513 0,0 -12.08743,-9.210902 -12.08743,-9.210902 0,0 2.73585,-3.189025 2.73585,-3.189025 0,0 3.36909,-3.462749 3.36909,-3.462749 1.70028,-1.978711 3.558,-3.838703 5.53117,-5.579969 1.17201,-1.035528 3.72244,-3.218706 5.36675,-3.218706 1.63731,0 2.29504,1.843502 2.8723,2.994452 1.57434,3.142854 4.71951,7.806022 8.74982,4.125615 0.51779,-0.438613 1.40991,-1.493927 1.75977,-2.051265 2.46646,-4.283911 -2.43498,-5.889968 -5.82506,-6.605603 -1.30145,-0.273719 -3.47404,-0.455102 -3.18716,-2.19637 0.16793,-1.022335 2.00116,-3.40998 2.73585,-4.267422 0,0 12.69967,-14.813961 12.69967,-14.813961 0,0 14.2635,10.869727 14.2635,10.869727 z"
     id="Selection-3"
     style="fill:#ffff00;fill-opacity:1;stroke:none;filter:url(#filter5138);opacity:0.5"
     inkscape:export-xdpi="90"
     inkscape:export-ydpi="90" />
  <path
     inkscape:connector-curvature="0"
     d="m 59.073435,18.871555 c 1.71779,1.27627 7.56733,5.042418 9.51951,5.105078 2.3755,0.141809 2.36151,-1.639034 2.79183,-3.258279 0.7137,-3.241791 2.43847,-8.584314 7.07753,-6.74741 0.86414,0.342977 1.61632,0.916804 2.32652,1.484035 2.55043,2.034776 3.28512,3.822212 0.93061,6.354964 -1.38892,1.493928 -3.3306,2.371157 -5.21281,3.185728 -0.83965,0.362763 -2.35102,0.847548 -2.72186,1.6885 -0.82915,1.869884 1.95918,4.508167 3.23264,5.751457 4.48512,4.372956 9.95682,8.06985 14.98071,11.898657 0,0 -4.88745,5.695398 -4.88745,5.695398 0,0 -2.88278,3.832104 -2.88278,3.832104 0,0 -2.88629,3.828811 -2.88629,3.828811 0,0 -3.12769,3.647426 -3.12769,3.647426 -0.58075,0.67606 -1.6688,2.193072 -2.77083,1.728076 -0.85714,-0.362765 -1.56385,-2.443711 -1.9172,-3.251687 -1.46238,-3.357212 -4.32418,-7.436662 -8.5679,-4.435614 -0.73469,0.517764 -1.45889,1.170741 -1.99066,1.876479 -0.47931,0.633187 -1.05657,1.698396 -1.22449,2.456902 -1.05656,4.785187 4.90844,6.249434 8.64137,7.027725 2.15859,0.48149 4.15626,0.593617 4.22272,3.218705 0.077,2.03148 -1.43789,4.92699 -2.44547,6.73422 -1.40291,2.52286 -4.737,7.47623 -6.60522,9.66271 -1.41691,1.65883 -3.51253,3.78264 -4.43964,5.64263 0,0 -3.62448,-2.7636 -3.62448,-2.7636 0,0 -2.71486,-2.42723 -2.71486,-2.42723 0,0 -4.11077,-3.13295 -4.11077,-3.13295 0,0 -6.39531,-5.59316 -6.39531,-5.59316 -1.96968,-1.73797 -6.53176,-5.91306 -7.33993,-8.26442 -0.65772,-2.064464 1.08455,-2.499776 2.73586,-3.189032 2.49445,-1.160839 6.26936,-3.093384 5.03089,-6.308791 -0.22392,-0.577122 -0.61925,-1.088289 -1.07056,-1.526907 -0.39533,-0.392447 -1.44839,-1.203716 -1.93469,-1.474139 -0.72419,-0.389147 -1.45538,-0.567231 -2.29153,-0.54085 -2.97026,0.09564 -3.76092,3.00764 -4.23323,5.289761 -0.30087,1.279564 -0.27288,3.330831 -2.34051,2.730621 -0.86764,-0.240743 -1.83673,-1.042122 -2.64139,-1.517015 0,0 -6.18191,-4.442211 -6.18191,-4.442211 0,0 -3.91485,-3.360513 -3.91485,-3.360513 0,0 -12.08743,-9.210902 -12.08743,-9.210902 0,0 2.73585,-3.189025 2.73585,-3.189025 0,0 3.36909,-3.462749 3.36909,-3.462749 1.70028,-1.978711 3.558,-3.838703 5.53117,-5.579969 1.17201,-1.035528 3.72244,-3.218706 5.36675,-3.218706 1.63731,0 2.29504,1.843502 2.8723,2.994452 1.57434,3.142854 4.71951,7.806022 8.74982,4.125615 0.51779,-0.438613 1.40991,-1.493927 1.75977,-2.051265 2.46646,-4.283911 -2.43498,-5.889968 -5.82506,-6.605603 -1.30145,-0.273719 -3.47404,-0.455102 -3.18716,-2.19637 0.16793,-1.022335 2.00116,-3.40998 2.73585,-4.267422 0,0 12.69967,-14.81396 12.69967,-14.81396 0,0 14.2635,10.869726 14.2635,10.869726 z"
     id="Selection"
     style="fill:#63008c;fill-opacity:1;stroke:none"
     inkscape:export-xdpi="90"
     inkscape:export-ydpi="90" />
  <path
     style="fill:url(#linearGradient4338);fill-opacity:1;stroke:none;opacity:0.59999999999999998"
     d="M 44.8125,7.9999999 32.09375,22.8125 c -0.73469,0.85744 -2.55082,3.22766 -2.71875,4.25 -0.28688,1.74126 1.88605,1.94503 3.1875,2.21875 3.39008,0.71563 8.27896,2.30983 5.8125,6.59375 -0.34986,0.55733 -1.23221,1.62388 -1.75,2.0625 -4.03031,3.6804 -7.17566,-0.98215 -8.75,-4.125 -0.57726,-1.15096 -1.23769,-3 -2.875,-3 -1.64431,0 -4.20299,2.18322 -5.375,3.21875 -1.97317,1.74126 -3.83097,3.58378 -5.53125,5.5625 L 10.75,43.0625 7.9999998,46.25 20.09375,55.46875 24,58.8125 l 6.1875,4.46875 c 0.80466,0.47489 1.75736,1.25925 2.625,1.5 2.06763,0.60021 2.04288,-1.43919 2.34375,-2.71875 0.47231,-2.28213 1.27974,-5.21686 4.25,-5.3125 0.83615,-0.0264 1.55706,0.17335 2.28125,0.5625 0.4863,0.27042 1.54217,1.0763 1.9375,1.46875 0.45131,0.43861 0.83858,0.95412 1.0625,1.53125 1.23847,3.2154 -2.5368,5.15166 -5.03125,6.3125 -1.65131,0.68925 -3.37647,1.12303 -2.71875,3.1875 0.80817,2.35136 5.37407,6.51202 7.34375,8.25 l 6.375,5.59375 4.125,3.125 L 57.5,89.21875 61.125,92 c 0.92711,-1.86 3.02059,-3.99743 4.4375,-5.65625 1.86822,-2.18648 5.19084,-7.13339 6.59375,-9.65625 1.00758,-1.80723 2.5145,-4.71852 2.4375,-6.75 -0.0665,-2.62509 -2.06016,-2.73726 -4.21875,-3.21875 -3.73293,-0.7783 -9.68156,-2.24607 -8.625,-7.03125 0.16792,-0.75851 0.73944,-1.80432 1.21875,-2.4375 0.53177,-0.70574 1.26531,-1.35724 2,-1.875 4.24372,-3.00105 7.10012,1.08028 8.5625,4.4375 0.35335,0.80797 1.04911,2.88723 1.90625,3.25 1.10203,0.46499 2.2005,-1.07394 2.78125,-1.75 l 3.125,-3.625 2.875,-3.84375 2.875,-3.8125 L 92,44.3125 c -5.02389,-3.82881 -10.51488,-7.50205 -15,-11.875 -1.27346,-1.24329 -4.0479,-3.91137 -3.21875,-5.78125 0.37084,-0.84096 1.8791,-1.32474 2.71875,-1.6875 1.88221,-0.81458 3.82983,-1.69358 5.21875,-3.1875 2.35451,-2.53276 1.61293,-4.30898 -0.9375,-6.34375 -0.7102,-0.56724 -1.44836,-1.12578 -2.3125,-1.46875 -4.63906,-1.83691 -6.38005,3.5082 -7.09375,6.75 -0.43032,1.61924 -0.40575,3.3918 -2.78125,3.25 -1.95218,-0.0627 -7.81346,-3.84873 -9.53125,-5.125 L 44.8125,7.9999999 z M 45.03125,10.09375 58.0625,20.0625 c 1.71779,1.27627 7.57907,5.03109 9.53125,5.09375 0.22579,0.0135 0.4087,-0.0118 0.59375,-0.0312 0.1505,0.0313 0.28424,0.0273 0.40625,0.0312 0.22579,0.0135 0.4087,-0.0118 0.59375,-0.0312 0.1505,0.0313 0.28424,0.0273 0.40625,0.0312 2.3755,0.1418 2.35093,-1.63076 2.78125,-3.25 0.54779,-2.48818 1.71291,-6.20156 4.3125,-6.96875 0.24829,0.0599 0.51398,0.11292 0.78125,0.21875 0.86414,0.34298 1.6023,0.93277 2.3125,1.5 1.07862,0.86054 1.85473,1.65285 2.1875,2.5 -0.21681,0.57546 -0.63751,1.18489 -1.25,1.84375 -1.38892,1.49393 -3.33654,2.37293 -5.21875,3.1875 -0.83965,0.36276 -2.34791,0.84654 -2.71875,1.6875 -0.17274,0.38955 -0.18862,0.8133 -0.0937,1.25 -0.083,0.31492 -0.0741,0.65892 0,1 -0.48651,1.84719 2.12839,4.31342 3.34375,5.5 4.17706,4.07259 9.17644,7.5725 13.90625,11.125 l -3.8125,4.46875 -2.90625,3.84375 -2.875,3.8125 -3.125,3.65625 c -0.30102,0.35042 -0.74509,0.90332 -1.25,1.3125 C 75.335,61.1016 74.81486,59.64839 74.5313,59 c -1.18818,-2.72774 -3.31728,-5.9414 -6.34375,-5.4375 -0.32011,-0.0323 -0.65628,-0.0572 -1,0 -0.97057,-0.0979 -2.03146,0.16038 -3.21875,1 -0.73469,0.51777 -1.46823,1.16927 -2,1.875 -0.47931,0.63319 -1.05083,1.71024 -1.21875,2.46875 -0.13207,0.59814 -0.16303,1.12548 -0.0937,1.625 -0.0335,0.35279 -0.0436,0.68554 0,1 -0.40635,4.27564 5.15869,5.664 8.71875,6.40625 1.88877,0.4213 3.6686,0.5571 4.125,2.34375 -0.3417,1.87735 -1.51162,4.10122 -2.34375,5.59375 -1.40291,2.52286 -4.72553,7.46977 -6.59375,9.65625 -1.15744,1.35505 -2.78742,3.01539 -3.84375,4.59375 L 58.5001,88.4375 55.78135,86 l -4.125,-3.125 -6.375,-5.59375 c -1.89468,-1.6718 -6.17523,-5.61053 -7.21875,-8 0.49499,-0.69213 1.56168,-1.03797 2.59375,-1.46875 2.29482,-1.06794 5.68821,-2.79032 5.25,-5.5625 0.0547,-0.31403 0.0547,-0.654 0,-1 0.0928,-0.5329 0.0226,-1.12347 -0.21875,-1.75 C 45.46368,58.92287 45.07641,58.40736 44.6251,57.96875 44.22977,57.5763 43.1739,56.77042 42.6876,56.5 c -0.72419,-0.38915 -1.4451,-0.55764 -2.28125,-0.53125 -0.10946,0.004 -0.20886,0.0202 -0.3125,0.0312 -0.22755,-0.027 -0.44464,-0.0389 -0.6875,-0.0312 -0.10946,0.004 -0.20886,0.0202 -0.3125,0.0312 -0.22755,-0.027 -0.44464,-0.0389 -0.6875,-0.0312 -2.97026,0.0956 -3.77769,2.99913 -4.25,5.28125 -0.19667,0.83643 -0.2509,1.99148 -0.84375,2.53125 -0.72535,-0.34186 -1.4741,-0.92836 -2.125,-1.3125 l -6.1875,-4.4375 -3.90625,-3.375 -11.0625,-8.40625 1.71875,-2 3.34375,-3.4375 c 1.70028,-1.97872 3.55808,-3.85249 5.53125,-5.59375 0.94289,-0.8331 2.77486,-2.38445 4.3125,-2.96875 0.97972,0.53434 1.4861,1.84999 1.9375,2.75 1.22526,2.44599 3.4138,5.79965 6.21875,5.4375 0.31873,0.0563 0.66252,0.0436 1,0 1.07345,0.18958 2.26022,-0.15183 3.53125,-1.3125 0.51779,-0.43862 1.40014,-1.50517 1.75,-2.0625 0.61662,-1.07098 0.79063,-1.95458 0.625,-2.71875 0.0477,-0.35709 0.0671,-0.69051 0,-1 0.40092,-3.00219 -3.55169,-4.26582 -6.4375,-4.875 C 32.64567,28.2759 31.30457,28.1165 30.6876,27.4375 31.28022,26.27883 32.54755,24.67404 33.1251,24 L 45.03125,10.09375 z"
     id="Selection-2-8"
     inkscape:connector-curvature="0" />
  <path
     style="opacity:0.45;fill:url(#linearGradient4540);fill-opacity:1;stroke:none"
     d="M 44.8125,8 32.125,22.8125 c -0.73469,0.857443 -2.58207,3.258915 -2.75,4.28125 -0.28688,1.741268 1.88605,1.913781 3.1875,2.1875 3.39008,0.715635 8.27896,2.309839 5.8125,6.59375 -0.34986,0.557338 -1.23221,1.623887 -1.75,2.0625 -4.03031,3.680407 -7.17566,-0.982146 -8.75,-4.125 -0.57726,-1.150951 -1.23769,-3 -2.875,-3 -1.64431,0 -4.20299,2.183222 -5.375,3.21875 -1.97317,1.741266 -3.83097,3.615039 -5.53125,5.59375 L 10.75,43.0625 7.9999995,46.28125 20.09375,55.46875 24,58.84375 l 6.1875,4.4375 c 0.80466,0.474893 1.75736,1.290507 2.625,1.53125 2.06763,0.60021 2.04288,-1.470436 2.34375,-2.75 0.47231,-2.282121 1.27974,-5.18561 4.25,-5.28125 0.83615,-0.02638 1.55706,0.142103 2.28125,0.53125 0.4863,0.270423 1.54217,1.076303 1.9375,1.46875 0.45131,0.438618 0.83858,0.954128 1.0625,1.53125 1.23847,3.215407 -2.5368,5.151661 -5.03125,6.3125 -1.65131,0.689256 -3.37647,1.123036 -2.71875,3.1875 0.80817,2.351362 5.37407,6.543275 7.34375,8.28125 l 6.375,5.59375 4.125,3.125 L 57.5,89.25 61.125,92 c 0.927109,-1.859992 3.020589,-3.997427 4.4375,-5.65625 1.868219,-2.18648 5.190839,-7.13339 6.59375,-9.65625 1.00758,-1.807227 2.514499,-4.68727 2.4375,-6.71875 -0.0665,-2.625085 -2.06016,-2.73726 -4.21875,-3.21875 -3.73293,-0.778291 -9.681561,-2.246063 -8.625,-7.03125 0.167919,-0.758506 0.73944,-1.835563 1.21875,-2.46875 0.531769,-0.705738 1.265309,-1.357236 2,-1.875 4.243719,-3.001048 7.10012,1.080288 8.5625,4.4375 0.35335,0.807976 1.049109,2.887235 1.90625,3.25 1.102029,0.464996 2.2005,-1.04269 2.78125,-1.71875 l 3.125,-3.65625 2.875,-3.8125 L 87.125,50.03125 92,44.34375 C 86.976111,40.514943 81.51637,36.810456 77.03125,32.4375 75.757789,31.19421 72.9521,28.557384 73.78125,26.6875 74.15209,25.846548 75.660349,25.362763 76.5,25 c 1.88221,-0.814571 3.82983,-1.693572 5.21875,-3.1875 2.35451,-2.532752 1.61293,-4.308974 -0.9375,-6.34375 -0.710201,-0.567231 -1.44836,-1.157023 -2.3125,-1.5 -4.639061,-1.836904 -6.38005,3.50821 -7.09375,6.75 -0.43032,1.619245 -0.40575,3.391809 -2.78125,3.25 C 66.64157,23.90609 60.780289,20.15127 59.0625,18.875 L 44.8125,8 z m 0.0937,2.0625 c 0.49429,0.271073 1.15317,0.801576 1.625,1.15625 l 3.15625,2.40625 5.03125,3.8125 c 2.13623,1.645862 4.26182,3.246842 6.5625,4.6875 1.39391,0.873178 2.81345,1.701965 4.3125,2.40625 0.95982,0.450943 1.86964,0.901183 2.96875,0.90625 l 0.625,0 c 1.39299,-0.01604 2.47136,-0.872645 3.03125,-2.03125 0.32623,-0.674728 0.51226,-1.725621 0.6875,-2.46875 0.26243,-1.109627 0.65567,-2.505224 1.15625,-3.53125 0.7675,-1.574928 1.74677,-2.796345 3.75,-2.09375 0.40621,0.142714 0.61107,0.270305 0.96875,0.5 0.45475,0.291341 1.43414,0.986541 1.8125,1.34375 0.35858,0.337787 0.91352,1.033856 1.03125,1.5 0.27949,1.112162 -0.91689,2.355672 -1.75,3 -1.69226,1.308921 -3.41443,1.856555 -5.3125,2.75 -1.30402,0.61477 -2.34603,1.51627 -2.40625,2.96875 -0.0971,2.334948 2.41088,4.72743 4.03125,6.25 l 2.15625,2 c 2.23958,1.960847 4.62562,3.750277 7.000001,5.5625 l 3.1563,2.3125 c 0.45475,0.342008 1.0897,0.76949 1.4375,1.1875 l -3.90625,4.5625 -4.875001,6.40625 -3.25,3.96875 C 77.39668,60.223726 76.62731,61.23064 76,61.65625 75.5192,61.018678 75.17377,59.880796 74.8125,59.125 c -0.93646,-1.955782 -2.15074,-4.022148 -4.09375,-5.25 -3.85906,-2.438817 -8.11644,0.80962 -9.84375,4.0625 -0.4916,0.927223 -0.76867,1.734113 -0.78125,2.78125 -0.0504,4.197838 4.35782,6.173278 8.09375,7.0625 l 3.15625,0.6875 c 0.44036,0.103869 1.0872,0.249202 1.40625,0.5625 0.32622,0.320052 0.39297,0.886889 0.375,1.3125 -0.071,1.710042 -1.57564,4.5678 -2.4375,6.09375 -1.31391,2.325657 -4.30504,6.692888 -6,8.78125 -1.22315,1.506526 -2.91276,3.13369 -3.96875,4.71875 -0.53293,-0.264317 -0.97017,-0.647012 -1.4375,-1 L 57.5,87.5 55.25,85.5 51.375,82.5625 49.21875,80.65625 42.84375,75 c -1.24023,-1.165361 -2.85987,-2.782305 -3.8125,-4.15625 -0.25973,-0.374944 -0.89697,-1.304122 -0.8125,-1.75 0.0611,-0.318364 0.4687,-0.504241 0.75,-0.625 l 2.25,-0.96875 c 2.31418,-1.206741 5.09085,-2.978464 5.125,-5.75 0.0233,-1.953248 -0.93596,-3.145463 -2.40625,-4.40625 -0.84748,-0.726241 -1.84805,-1.424031 -2.96875,-1.71875 -0.6965,-0.184094 -1.28733,-0.1326 -2,-0.125 -1.20157,0.01351 -2.19995,0.563465 -3.03125,1.34375 -1.87022,1.757332 -2.22086,4.329748 -2.71875,6.65625 -0.74323,-0.165514 -1.25849,-0.59888 -1.875,-1 L 27.65625,59.90625 24.6875,57.75 l -4.125,-3.5 -5.125,-3.875 -4.03125,-3.0625 c -0.25973,-0.195915 -1.33027,-0.945144 -1.34375,-1.21875 -0.0126,-0.243207 0.6024,-0.854761 0.78125,-1.0625 l 2.4375,-2.625 3.875,-4.15625 3.125,-2.9375 c 1.02453,-0.895978 2.4365,-2.13269 3.6875,-2.71875 0.30466,-0.142715 0.72548,-0.315014 1.0625,-0.1875 0.30736,0.116537 0.56507,0.517776 0.71875,0.78125 l 1.09375,2.125 c 0.84479,1.563105 2.0992,3.343068 3.59375,4.40625 0.76749,0.546369 1.74365,0.995778 2.71875,1 l 0.875,0 c 1.21955,-0.01436 2.35938,-0.751799 3.25,-1.46875 2.33395,-1.878091 4.38223,-5.18876 2.3125,-7.90625 -1.30762,-1.716798 -3.70773,-2.63606 -5.8125,-3.15625 -0.97869,-0.241517 -2.1575,-0.37759 -3.0625,-0.75 0.35589,-0.993935 0.98242,-1.839657 1.625,-2.6875 l 3.375,-3.96875 9.1875,-10.71875 z"
     id="Selection-4"
     inkscape:connector-curvature="0" />
  <g
     transform="translate(2,2)"
     id="layer4">
    <rect
       width="66"
       height="66"
       rx="12"
       ry="12"
       x="15"
       y="15"
       clip-path="url(#clipPath2880-5)"
       id="rect3171-4"
       style="opacity:0;fill:url(#linearGradient3926);fill-opacity:1;fill-rule:nonzero;stroke:#ffffff;stroke-width:0.5;stroke-linecap:round;stroke-linejoin:miter;stroke-miterlimit:4;stroke-opacity:1;stroke-dasharray:none;stroke-dashoffset:0;filter:url(#filter3794-1)" />
  </g>
  <path
     d="m 47.189291,15.450012 c 0,0 2.6,2.099999 2.6,2.099999 0,0 6.59999,5.309999 6.59999,5.309999 0,0 4.1,2.759999 4.1,2.759999 1.8,1.129999 4.76,2.819999 6.9,2.829999 0,0 0.6,0 0.6,0 0.17,2.079999 1.65,4.179998 2.98,5.699997 2.15,2.43 4.92,4.909999 7.42,6.989998 0,0 3.59999,2.889999 3.59999,2.889999 0.26,0.21 1.16,0.82 1.2,1.129999 0.03,0.27 -0.36,0.69 -0.52,0.89 0,0 -1.51,1.899999 -1.51,1.899999 0,0 -5.96999,8.299997 -5.96999,8.299997 0,0 -0.2,0 -0.2,0 -0.56,-1.239999 -1.63,-2.649999 -2.6,-3.599998 -0.8,-0.78 -1.41,-1.18 -2.4,-1.68 -3.41,-1.689999 -7.14,-0.379999 -9.7,2.18 -0.43,0.429999 -0.96,0.919999 -1.33,1.399999 -0.58,0.73 -0.79,1.19 -1.19,1.999999 0,0 -0.61,1.3 -0.61,1.3 -0.58,1.609999 -0.67,3.869998 -0.13,5.499998 0.14,0.45 0.37,0.88 0.58,1.299999 0.41,0.8 0.87,1.45 1.49,2.1 1.54,1.619999 4.16,2.829999 6.29,3.459998 0,0 3.2,0.84 3.2,0.84 -0.33,1.440001 -1.34,3.31 -2.07,4.599999 -1.21,2.12 -2.52,4.219999 -3.93,6.199998 -0.62,0.88 -2.34,3.229999 -3.1,3.799999 0,0 -2.2,-2.059999 -2.2,-2.059999 0,0 -4,-3.269999 -4,-3.269999 0,0 -4.69999,-4.349999 -4.69999,-4.349999 0,0 -4.01,-3.919998 -4.01,-3.919998 0,0 -1.69,-2.000001 -1.69,-2.000001 1.43,-0.61 3.23,-1.879999 4.3,-2.999999 0.74,-0.78 1.35,-1.7 1.75,-2.699999 1.15,-2.829999 0.39,-5.839998 -1.58,-8.099998 -0.42,-0.489999 -0.7,-0.699999 -1.17,-1.119999 -1.5,-1.31 -3.44,-2.469999 -5.5,-2.479999 0,0 -1,0 -1,0 -1.22,0.01 -2.47,0.47 -3.5,1.109999 -0.66,0.41 -1.66,1.37 -2.12,1.99 -0.55,0.739999 -1.27,2.099999 -1.48,2.999999 -0.7,-0.27 -2.57,-1.82 -3.3,-2.36 0,0 -4.8,-4.209998 -4.8,-4.209998 0,0 -3.99999,-3.239998 -3.99999,-3.239998 0,0 -2.8,-2.269999 -2.8,-2.269999 -0.23,-0.19 -0.87,-0.62 -0.88,-0.92 -0.01,-0.25 0.34,-0.62 0.5,-0.799999 0,0 1.67,-1.8 1.67,-1.8 0,0 1.73,-1.999999 1.73,-1.999999 1.14,-1.3 2.29,-2.549999 3.58,-3.719999 0.58,-0.520001 0.70999,-0.72 1.39999,-1.18 0.68001,1.579999 1.82,3.359998 3,4.599998 1.49,1.549999 3.49,2.799999 5.7,2.799999 1.08,0 1.65,0.01 2.7,-0.369999 2.78,-0.989999 5.75,-4.299999 6.56,-7.129998 0.14,-0.49 0.23,-0.99 0.24,-1.5 0.02,-1.659999 0.1,-2.259999 -0.68,-3.799998 -0.23,-0.47 -0.45,-0.88 -0.77,-1.3 -1.51,-1.919999 -3.7,-2.919999 -5.95,-3.699998 0,0 2.68,-3.399999 2.68,-3.399999 0,0 3.46,-4.299998 3.46,-4.299998 0,0 3.06,-3.799999 3.06,-3.799999 0.57,0.26 1.02,0.71 1.5,1.1 z m 29.29999,3.799999 c -0.44,0.59 -1.29,1.189999 -2,1.399999 0,0 0.8,-2.299999 0.8,-2.299999 0,0 1.2,0.9 1.2,0.9 z"
     id="Selection-2"
     inkscape:connector-curvature="0"
     style="opacity:0.15;fill:url(#linearGradient5132);fill-opacity:1;stroke:none;filter:url(#filter5069)" />
</svg>
