/* XPM */
static char * libre_jigsaw_alt_xpm[] = {
"32 32 243 2",
"  	c None",
". 	c #00DDFF",
"+ 	c #11ACE9",
"@ 	c #B64440",
"# 	c #FF8D00",
"$ 	c #FE8700",
"% 	c #FF8800",
"& 	c #00DCFE",
"* 	c #0AC6F3",
"= 	c #63008B",
"- 	c #60008E",
"; 	c #88206A",
"> 	c #FC8601",
", 	c #FF8900",
"' 	c #FF8A00",
") 	c #02D7FB",
"! 	c #5D0C92",
"~ 	c #62008C",
"{ 	c #63008C",
"] 	c #690586",
"^ 	c #E57117",
"/ 	c #FF8C00",
"( 	c #B34644",
"_ 	c #902862",
": 	c #E47117",
"< 	c #00E1FF",
"[ 	c #541F9C",
"} 	c #5D0091",
"| 	c #BA4C3D",
"1 	c #D05F29",
"2 	c #5D0090",
"3 	c #5C0091",
"4 	c #D56425",
"5 	c #00E5FF",
"6 	c #483CAA",
"7 	c #5F008F",
"8 	c #8C2467",
"9 	c #FB8403",
"0 	c #FF8B00",
"a 	c #8F2764",
"b 	c #9C3159",
"c 	c #00E3FF",
"d 	c #395DBC",
"e 	c #64008A",
"f 	c #62008B",
"g 	c #BC4E3B",
"h 	c #FF9200",
"i 	c #650289",
"j 	c #700C80",
"k 	c #F78106",
"l 	c #2095D8",
"m 	c #660087",
"n 	c #61008D",
"o 	c #76107B",
"p 	c #740F7C",
"q 	c #C25236",
"r 	c #00E4FF",
"s 	c #55209C",
"t 	c #590094",
"u 	c #FF8F00",
"v 	c #09C6F3",
"w 	c #00E0FF",
"x 	c #12B4E9",
"y 	c #326DC4",
"z 	c #62018D",
"A 	c #B74A40",
"B 	c #05D1F9",
"C 	c #53229E",
"D 	c #6A0083",
"E 	c #1C9DDD",
"F 	c #00DEFF",
"G 	c #14B1E7",
"H 	c #660088",
"I 	c #C35434",
"J 	c #0BC4F1",
"K 	c #60068F",
"L 	c #581897",
"M 	c #1AA3E0",
"N 	c #650089",
"O 	c #B44743",
"P 	c #0AC6F2",
"Q 	c #61028D",
"R 	c #4249B1",
"S 	c #0EBDEE",
"T 	c #5F078F",
"U 	c #5F008E",
"V 	c #06CDF7",
"W 	c #5E0B91",
"X 	c #680085",
"Y 	c #6C0883",
"Z 	c #E57217",
"` 	c #04D4F9",
" .	c #5D0B91",
"..	c #B7483D",
"+.	c #4F2E96",
"@.	c #61008A",
"#.	c #915FAA",
"$.	c #03F505",
"%.	c #503171",
"&.	c #64008D",
"*.	c #803C9B",
"=.	c #C3C8C2",
"-.	c #00FE00",
";.	c #00FF00",
">.	c #35774B",
",.	c #670091",
"'.	c #6E1991",
").	c #BABDB9",
"!.	c #BCBCBC",
"~.	c #17C221",
"{.	c #62028A",
"].	c #61008B",
"^.	c #6E248D",
"/.	c #680E8C",
"(.	c #AAA4AD",
"_.	c #B3B3B3",
":.	c #B8B8B8",
"<.	c #05F207",
"[.	c #581A7D",
"}.	c #65008E",
"|.	c #494068",
"1.	c #464864",
"2.	c #660091",
"3.	c #826C8B",
"4.	c #91948F",
"5.	c #969B94",
"6.	c #6F228E",
"7.	c #60008B",
"8.	c #9479A0",
"9.	c #ACACAC",
"0.	c #B0B0B0",
"a.	c #B4B4B4",
"b.	c #474864",
"c.	c #65008F",
"d.	c #474666",
"e.	c #1DB429",
"f.	c #650090",
"g.	c #713988",
"h.	c #878886",
"i.	c #8B8A8B",
"j.	c #8E8F8F",
"k.	c #908992",
"l.	c #815096",
"m.	c #A5A7A4",
"n.	c #A8A8A8",
"o.	c #24A133",
"p.	c #64008E",
"q.	c #22A730",
"r.	c #610589",
"s.	c #724485",
"t.	c #838382",
"u.	c #868786",
"v.	c #909290",
"w.	c #712C8E",
"x.	c #75338F",
"y.	c #9EA19C",
"z.	c #A0A0A0",
"A.	c #A4A4A4",
"B.	c #07EC0A",
"C.	c #444F60",
"D.	c #07ED0A",
"E.	c #2F8642",
"F.	c #63018B",
"G.	c #775B82",
"H.	c #848A82",
"I.	c #878986",
"J.	c #8A8B8A",
"K.	c #90938F",
"L.	c #949794",
"M.	c #989797",
"N.	c #9C9C9B",
"O.	c #20AB2E",
"P.	c #552279",
"Q.	c #64078B",
"R.	c #6E2F89",
"S.	c #785089",
"T.	c #8B8C8A",
"U.	c #939393",
"V.	c #989798",
"W.	c #9C9C9C",
"X.	c #660090",
"Y.	c #61008C",
"Z.	c #7A5589",
"`.	c #8A8B8B",
" +	c #908F8E",
".+	c #949393",
"++	c #979797",
"@+	c #21AA2E",
"#+	c #7C6A84",
"$+	c #878787",
"%+	c #8A8A8A",
"&+	c #8F8F8F",
"*+	c #939394",
"=+	c #979798",
"-+	c #2A923B",
";+	c #661089",
">+	c #80847E",
",+	c #828383",
"'+	c #939493",
")+	c #24A233",
"!+	c #62008D",
"~+	c #725C7B",
"{+	c #7A7A7B",
"]+	c #7F7F7F",
"^+	c #868686",
"/+	c #8B8A8A",
"(+	c #16C520",
"_+	c #672682",
":+	c #737672",
"<+	c #777777",
"[+	c #7B7B7B",
"}+	c #838383",
"|+	c #8B8B8B",
"1+	c #0CDF11",
"2+	c #5F0B86",
"3+	c #63058A",
"4+	c #6A6B6A",
"5+	c #6E6E6F",
"6+	c #737373",
"7+	c #868687",
"8+	c #01FB02",
"9+	c #4C3A6C",
"0+	c #63008D",
"a+	c #625169",
"b+	c #676667",
"c+	c #6A6B6B",
"d+	c #6F6F6F",
"e+	c #3A6753",
"f+	c #63008E",
"g+	c #5D3E69",
"h+	c #5E5F5D",
"i+	c #626263",
"j+	c #676767",
"k+	c #6A6A6B",
"l+	c #23A432",
"m+	c #592A6E",
"n+	c #555755",
"o+	c #5A5A5A",
"p+	c #5E5E5E",
"q+	c #616262",
"r+	c #666666",
"s+	c #6A6A6A",
"t+	c #6E6E6E",
"        . . . . . . . . . + @ # $ % % % % % % % % % % %         ",
"    . . . . . . . . . & * = - ; > $ % % % % % % % , ' $ % %     ",
"  . . . . . . . . . & ) ! ~ { = ] ^ , % % % % % / ( _ : , % %   ",
"  . . . . . . . . & < [ ~ { { { = } | # $ % % $ 1 2 = 3 4 % %   ",
". . . . . . . . & 5 6 = { { { { { = 7 8 9 % % 0 a = { = b , % % ",
". . . . . . . . c d e { { { { { { { { f { g # h i = - j k $ % % ",
". . . . . . . . l m { { { { { { { { { { = n i o ~ p q / $ % % % ",
". . . . . . . r s m = { { { { { { { { { { { { { t u % % % % % % ",
". . . . & 5 v w w x y z ~ { { { { { { { { { { { n A ' % % % % % ",
". . . & B C D E & . F G H { { { { { { { { { { { = } I ' % % % % ",
". . & J K ~ ~ L 5 & & M N { { { { { { { { { { { { = } O # $ % % ",
". & P Q ~ { { = R 5 S T ~ { { { { { { { { { { { { { { U 8 $ $ % ",
"& V W ~ { { { { = X m ~ { { { { { { { { { { { { { { { { ~ Y Z , ",
"`  .~ { { { { { { { { { { { { { { { { { { { { { { { { { { = 3 ..",
"+.~ { { { { { { { { { { { { { { { { { { { { { { { { { { { { @.#.",
"$.%.&.{ { { { { { { { { { { { { { { { { { { { { { { { { { f *.=.",
"-.;.>.,.f { { { { { { { { { { { { { { { { { { { { { { { { '.).!.",
";.-.;.~.{.f { { { { { { { { { { { { { { { ].^./.f { { { f (._.:.",
";.;.;.-.<.[.{ { { { }.|.1.2.f { { { { { ~ 3.4.5.6.= { 7.8.9.0.a.",
";.;.;.;.-.;.b.c.f f d.;.;.e.f.{ { { { ~ g.h.i.j.k.7.].l.m.n.9.0.",
";.;.;.;.;.-.;.o.c.p.q.-.;.;.r.{ { { { ~ s.t.u.i.v.w.x.y.z.A.n.9.",
";.;.;.;.;.;.;.;.B.C.D.-.;.E.c.{ { { { { F.G.H.I.J.K.L.M.N.z.A.n.",
";.;.;.;.;.;.;.;.-.;.;.O.P.p.= { { { { { = ~ Q.R.S.T.j.U.V.W.z.A.",
";.;.;.;.;.;.;.;.;.;.;.X.f { { { { { { { { { { { Y.Z.`. +.+++W.z.",
";.;.;.;.;.;.;.;.;.;.;.@+2.= { { { { { { { { { { Y.#+$+%+&+*+=+N.",
";.;.;.;.;.;.;.;.;.;.;.;.-+2.f { { { { { { { { = ;+>+,+$+`.&+'+++",
";.;.;.;.;.;.;.;.;.;.;.;.;.)+2.f { { { { { { { !+~+{+]+,+^+/+&+*+",
";.;.;.;.;.;.;.;.;.;.;.;.;.;.(+&.f { { { { { ~ _+:+<+[+]+}+u.|+&+",
"  ;.;.;.;.;.;.;.;.;.;.;.;.;.;.1+2+f { { { = 3+4+5+6+<+[+]+}+7+  ",
"  ;.;.;.;.;.;.;.;.;.;.;.;.;.;.-.8+9+&.{ = 0+a+b+c+d+6+<+[+]+}+  ",
"    ;.;.;.;.;.;.;.;.;.;.;.;.;.;.-.;.e+X.f+g+h+i+j+k+d+6+<+[+    ",
"        ;.;.;.;.;.;.;.;.;.;.;.;.;.-.;.l+m+n+o+p+q+r+s+t+        "};
