<?xml version="1.0" encoding="UTF-8" standalone="no"?>
<!-- Created with Inkscape (http://www.inkscape.org/) -->

<svg
   xmlns:svg="http://www.w3.org/2000/svg"
   xmlns="http://www.w3.org/2000/svg"
   xmlns:xlink="http://www.w3.org/1999/xlink"
   version="1.1"
   width="3.5555601in"
   height="3.5555601in"
   viewBox="0 0 256 256"
   id="svg2">
  <defs
     id="defs7">
    <linearGradient
       id="linearGradient3835">
      <stop
         id="stop3837"
         style="stop-color:#cccccc;stop-opacity:1"
         offset="0" />
      <stop
         id="stop3839"
         style="stop-color:#3c3c3c;stop-opacity:1"
         offset="1" />
    </linearGradient>
    <linearGradient
       id="linearGradient3823">
      <stop
         id="stop3825"
         style="stop-color:#c9c9c9;stop-opacity:1"
         offset="0" />
      <stop
         id="stop3827"
         style="stop-color:#313131;stop-opacity:0"
         offset="1" />
    </linearGradient>
    <linearGradient
       x1="319.03125"
       y1="139.76784"
       x2="202.9015"
       y2="320.0004"
       id="linearGradient3841"
       xlink:href="#linearGradient3835"
       gradientUnits="userSpaceOnUse"
       gradientTransform="matrix(0.80503278,0,0,0.80389794,-1.0169782,-1.247657)"
       spreadMethod="pad" />
  </defs>
  <path
     d="m 0,116.9304 0,112.42188 c 0,14.76914 11.937607,26.6474 26.78053,26.6474 l 135.54485,0 0,-139.06928 -162.32538,0 z"
     id="rect3682-6-0-5"
     style="fill:#00ff00;fill-opacity:1;stroke:none" />
  <path
     d="m 161.6248,110.41879 0,145.58089 67.49697,0 c 14.77984,0 26.69186,-11.87011 26.69186,-26.62911 l 0,-118.95178 -94.18883,0 z"
     id="rect3682-6-0"
     style="fill:url(#linearGradient3841);fill-opacity:1;stroke:none" />
  <path
     d="m 112.558,0.18636515 0,110.23242485 143.25563,0 0,-84.003091 c 0,-14.523725 -11.92753,-26.22933385 -26.7266,-26.22933385 l -116.52903,0 z"
     id="rect3682-6"
     style="fill:#ff800f;fill-opacity:0.94117647;stroke:none" />
  <path
     d="M 26.390506,0.18636515 C 11.763751,0.18636515 0,11.895447 0,26.423483 l 0,90.506917 112.558,0 0,-116.74403485 -86.167494,0 z"
     id="rect3682"
     style="fill:#00ddff;fill-opacity:1;stroke:none" />
  <path
     d="m 155.5403,33.290477 c 5.23157,3.886921 23.04657,15.356853 28.99201,15.547684 7.23468,0.431881 7.19207,-4.991731 8.50262,-9.923198 2.17359,-9.872981 7.42645,-26.143812 21.55488,-20.549458 2.63177,1.044546 4.92256,2.792155 7.0855,4.519675 7.76742,6.196977 10.00497,11.640676 2.8342,19.354255 -4.22998,4.549806 -10.14345,7.221437 -15.87579,9.702237 -2.55718,1.104809 -7.16011,2.581236 -8.28952,5.142386 -2.52523,5.69479 5.96674,13.72977 9.84512,17.516253 13.6596,13.317977 30.32386,24.576991 45.62431,36.237749 0,0 -14.88491,17.34552 -14.88491,17.34552 0,0 -8.77963,11.6708 -8.77963,11.6708 0,0 -8.79029,11.66077 -8.79029,11.66077 0,0 -9.52549,11.10836 -9.52549,11.10836 -1.76872,2.05896 -5.0824,6.67907 -8.43869,5.26291 -2.61045,-1.10481 -4.76275,-7.4424 -5.83889,-9.90312 -4.45374,-10.2245 -13.16946,-22.6486 -26.09385,-13.50881 -2.23753,1.57687 -4.44311,3.56553 -6.06265,5.71488 -1.45973,1.92839 -3.2178,5.17252 -3.72922,7.48258 -3.21779,14.57344 14.94883,19.03285 26.31761,21.40317 6.57408,1.46638 12.65804,1.80787 12.86047,9.80267 0.23443,6.18694 -4.37916,15.00533 -7.44778,20.50928 -4.27261,7.68346 -14.42672,22.76913 -20.11645,29.42812 -4.31524,5.052 -10.69753,11.52014 -13.52108,17.18481 0,0 -11.03849,-8.41664 -11.03849,-8.41664 0,0 -8.26821,-7.39219 -8.26821,-7.39219 0,0 -12.5195,-9.54153 -12.5195,-9.54153 0,0 -19.47716,-17.03415 -19.47716,-17.03415 -5.99873,-5.29304 -19.892717,-18.0084 -22.354002,-25.16957 -2.003123,-6.28738 3.303022,-7.61314 8.332141,-9.71228 7.596941,-3.53539 19.093581,-9.42102 15.321751,-19.21365 -0.68193,-1.75764 -1.88593,-3.31442 -3.26041,-4.65024 -1.204,-1.19521 -4.41112,-3.66596 -5.89216,-4.48954 -2.20557,-1.18516 -4.432432,-1.72752 -6.978955,-1.64718 -9.046019,0.29126 -11.454028,9.15987 -12.89244,16.11014 -0.916322,3.89696 -0.831082,10.14416 -7.128133,8.3162 -2.642415,-0.73319 -5.593826,-3.17382 -8.044454,-4.62012 0,0 -18.827219,-13.5289 -18.827219,-13.5289 0,0 -11.922839,-10.23455 -11.922839,-10.23455 0,0 -36.8127,-28.05211 -36.8127,-28.05211 0,0 8.332136,-9.71228 8.332136,-9.71228 0,0 10.260674,-10.545913 10.260674,-10.545913 5.178284,-6.026233 10.83604,-11.690895 16.845407,-16.99398 3.569394,-3.15373 11.33682,-9.802674 16.344625,-9.802674 4.986497,0 6.989619,5.614442 8.747679,9.119701 4.794707,9.571668 14.373468,23.773496 26.647921,12.564698 1.576926,-1.335814 4.293923,-4.549807 5.359421,-6.247196 C 100.04957,72.05925 85.122044,67.167955 74.797439,64.988467 70.833815,64.15484 64.217118,63.602435 65.09082,58.299348 c 0.511435,-3.113553 6.094606,-10.385209 8.332136,-12.996577 0,0 38.677314,-45.11640585 38.677314,-45.11640585 0,0 43.44003,33.10411185 43.44003,33.10411185 z"
     id="Selection"
     style="fill:#63008c;fill-opacity:1;stroke:none" />
</svg>
